<?xml version="1.0" encoding="UTF-8"?>
<svg version="1.1" xmlns="http://www.w3.org/2000/svg" width="668" height="688">
<path d="M0 0 C220.44 0 440.88 0 668 0 C668 227.04 668 454.08 668 688 C447.56 688 227.12 688 0 688 C0 460.96 0 233.92 0 0 Z " fill="#FCFDFD" transform="translate(0,0)"/>
<path d="M0 0 C0.99 0 1.98 0 3 0 C3 0.99 3 1.98 3 3 C3.99 3 4.98 3 6 3 C6.0825 3.61875 6.165 4.2375 6.25 4.875 C6.80607909 7.17381462 6.80607909 7.17381462 9 8.1875 C9.99 8.5896875 9.99 8.5896875 11 9 C11.495 9.495 11.495 9.495 12 10 C11.67654381 13.81678307 11.37088678 17.04069911 9.98681641 20.62060547 C8.82691958 24.59272122 8.73923581 28.27495493 8.76171875 32.37109375 C8.74627944 34.01498203 8.72997441 35.65886236 8.71289062 37.30273438 C8.69658298 39.85621927 8.68742041 42.40911482 8.69458008 44.96264648 C8.70579283 55.4180236 7.95967926 64.08556075 3.97192383 73.82055664 C2.87506458 77.40869982 2.99746434 79.41292552 4 83 C4.99 84.485 4.99 84.485 6 86 C5.68709476 89.3857826 4.46666045 90.65460482 1.97412109 92.81860352 C-2.81656949 98.22708108 -1.74134265 105.08693029 -1.5859375 111.90234375 C-1.57473211 113.34963718 -1.56619827 114.79695353 -1.56021118 116.24427795 C-1.53741725 120.0342306 -1.47858032 123.8227803 -1.4119873 127.61218262 C-1.35035781 131.48670477 -1.32315245 135.36145599 -1.29296875 139.23632812 C-1.22882372 146.82485497 -1.12656408 154.41223013 -1 162 C-1.66 162 -2.32 162 -3 162 C-3.19335938 163.27875 -3.38671875 164.5575 -3.5859375 165.875 C-3.84876265 167.58336345 -4.11179451 169.29169511 -4.375 171 C-4.50132812 171.83917969 -4.62765625 172.67835938 -4.7578125 173.54296875 C-5.14402967 176.03406951 -5.57088366 178.51598505 -6 181 C-6.09740479 181.73444336 -6.19480957 182.46888672 -6.29516602 183.22558594 C-6.98545153 187.22858139 -8.04702402 189.44010441 -11.23046875 191.828125 C-12.53433598 192.65965284 -13.85409821 193.46670697 -15.1875 194.25 C-16.15913086 194.86101562 -16.15913086 194.86101562 -17.15039062 195.484375 C-21.36258921 198.11016113 -25.6799847 200.55703415 -30 203 C-30.24911914 194.41922945 -29.69882188 186.41826913 -28 178 C-28.99 178 -29.98 178 -31 178 C-31.28359375 179.15628906 -31.5671875 180.31257812 -31.859375 181.50390625 C-35.70284652 196.82722035 -38.95195484 208.34010419 -53 217 C-56.98982426 219.34826571 -61.01935994 221.62002472 -65.0625 223.875 C-66.11888672 224.46796875 -67.17527344 225.0609375 -68.26367188 225.671875 C-70.84067223 227.11779375 -73.41945281 228.560424 -76 230 C-77.24030615 226.27908154 -76.28335333 224.94710338 -74.59838867 221.55444336 C-74.23592041 220.85585205 -73.87345215 220.15726074 -73.5 219.4375 C-72.95339722 218.36157593 -72.95339722 218.36157593 -72.39575195 217.26391602 C-69.82377248 212.30785151 -66.96209207 207.73477477 -63.54296875 203.30859375 C-59.44646188 197.1793898 -58.01303469 190.47236133 -56.4375 183.375 C-54.24321333 173.59242166 -54.24321333 173.59242166 -52.84375 170.18359375 C-51.81443635 167.51976815 -51.90224468 165.52689549 -52.0625 162.6875 C-52.1776586 157.35421743 -51.16448291 153.84844171 -49 149 C-47.89485234 145.68455701 -47.67892369 142.79589889 -47.4375 139.3125 C-47.35371094 138.13300781 -47.26992188 136.95351562 -47.18359375 135.73828125 C-47.09271484 134.38283203 -47.09271484 134.38283203 -47 133 C-47.66 133 -48.32 133 -49 133 C-49.144375 133.639375 -49.28875 134.27875 -49.4375 134.9375 C-50 137 -50 137 -51 138 C-52.66617115 138.04063832 -54.33388095 138.042721 -56 138 C-56.15855469 138.57105469 -56.31710937 139.14210937 -56.48046875 139.73046875 C-58.7628642 147.66210818 -61.271059 155.84118003 -65.140625 163.15625 C-66.50392123 166.08114009 -66.17602686 168.83151647 -66 172 C-65.505 172.99 -65.505 172.99 -65 174 C-64.95977609 176.3329866 -64.95679753 178.66706666 -65 181 C-66.98 180.67 -68.96 180.34 -71 180 C-71.66 182.97 -72.32 185.94 -73 189 C-76.41756151 189.31068741 -78.40106977 189.3625104 -81.375 187.5625 C-83.80794131 183.7259387 -83.8617453 180.41920665 -83 176 C-81.9405254 173.95642844 -80.68935571 172.16324258 -79.37109375 170.27734375 C-75.42650745 163.72550953 -74.02434745 155.86494175 -73.0625 148.375 C-72.20330904 141.94668948 -69.98754167 136.71484452 -67 131 C-66.67 130.34 -66.34 129.68 -66 129 C-66.66 129 -67.32 129 -68 129 C-67.43068456 123.76018941 -64.88232044 119.59268812 -62.375 115.0625 C-61.96121094 114.27681641 -61.54742187 113.49113281 -61.12109375 112.68164062 C-57.36083738 105.85260361 -52.67291325 101.49968139 -46.0625 97.4375 C-42.72909901 95.34917783 -42.72909901 95.34917783 -42.5625 92.1875 C-42.706875 91.465625 -42.85125 90.74375 -43 90 C-44.8253125 90.0928125 -44.8253125 90.0928125 -46.6875 90.1875 C-54.26236906 89.42760072 -59.8008681 83.0872424 -65 78 C-68.40294405 72.89558393 -67.78875142 66.94237301 -67 61 C-65.08747907 57.33335711 -62.69684273 54.84842137 -59 53 C-58.7525 52.2575 -58.505 51.515 -58.25 50.75 C-56.5774 47.07028 -54.59630444 44.77657439 -51 43 C-45.87080024 41.83204528 -41.71488313 42.11221647 -37.01953125 44.54296875 C-35.14789071 45.76799663 -33.3069549 47.0418766 -31.5078125 48.37109375 C-28.92203585 50.05064027 -27.03198284 50.61421007 -24 51 C-24.13019531 51.66386719 -24.26039063 52.32773438 -24.39453125 53.01171875 C-24.82082783 55.74081369 -25.11457559 58.23745522 -25 61 C-22.7495803 63.91790525 -22.7495803 63.91790525 -20 66 C-18.49198264 69.48004006 -18.72819045 73.26261871 -19 77 C-20.375 78.9375 -20.375 78.9375 -22 80 C-22.66 80 -23.32 80 -24 80 C-24 81.65 -24 83.3 -24 85 C-20.81727324 83.65313749 -19.29457995 82.41849659 -17.4921875 79.48046875 C-17.06292969 78.78759766 -16.63367188 78.09472656 -16.19140625 77.38085938 C-15.75699219 76.65705078 -15.32257813 75.93324219 -14.875 75.1875 C-14.43285156 74.47529297 -13.99070312 73.76308594 -13.53515625 73.02929688 C-9.1271494 65.83132798 -7.52916787 59.78792128 -6.5 51.4375 C-6.24639639 49.45812707 -5.9912 47.47895753 -5.734375 45.5 C-5.5497168 44.076875 -5.5497168 44.076875 -5.36132812 42.625 C-4.79399137 38.50337518 -4.04425798 34.41993602 -3.234375 30.33984375 C-2.85152644 26.51773896 -3.45723907 23.82499662 -5.5625 20.625 C-7.3974245 17.27426831 -7.22124427 14.76115263 -7 11 C-5.68 11.33 -4.36 11.66 -3 12 C-2.86722656 11.30132812 -2.73445313 10.60265625 -2.59765625 9.8828125 C-2.42105469 8.97273438 -2.24445313 8.06265625 -2.0625 7.125 C-1.88847656 6.22007813 -1.71445312 5.31515625 -1.53515625 4.3828125 C-1 2 -1 2 0 0 Z " fill="#042353" transform="translate(444,57)"/>
<path d="M0 0 C0.556875 1.093125 1.11375 2.18625 1.6875 3.3125 C4.62089509 8.43561256 8.65587667 9.92172982 14 12 C14.495 12.495 14.495 12.495 15 13 C15.33 12.01 15.66 11.02 16 10 C17.99145391 8.98308736 19.99187074 7.98357352 22 7 C22.66 6.01 23.32 5.02 24 4 C31.32048911 6.33766296 38.41622972 9.09705213 45.51708984 12.02807617 C50.18431868 13.9377919 54.74618397 15.50890101 59.625 16.8125 C62.12109375 17.66015625 62.12109375 17.66015625 64 19 C65.49449973 22.6538125 65.911957 26.07192787 66 30 C66.66 30 67.32 30 68 30 C68 30.66 68 31.32 68 32 C70.31 32.66 72.62 33.32 75 34 C74.01 52.15 73.02 70.3 72 89 C68.535 89.99 68.535 89.99 65 91 C63.42135048 92.95451846 63.02944638 94.40371089 62.90625 96.8984375 C62.64558879 99.40264696 62.36836131 100.86220869 61 103 C56.34744035 105.32943624 50.95930836 107.4069677 45.69921875 106.68359375 C44 106 44 106 42.1875 104.5 C39.11502171 102.39315775 36.69721956 102.129727 33 102 C30.30480288 103.30027975 30.30480288 103.30027975 28 105 C25.33885484 106.08289024 24.21514879 106.068979 21.44140625 105.1796875 C20.49136719 104.74914062 19.54132813 104.31859375 18.5625 103.875 C14.22904004 101.95604693 9.89926758 100.2222915 5.4375 98.625 C-9.57563427 92.85623003 -21.46800529 82.58881665 -30 69 C-30.33 68.01 -30.66 67.02 -31 66 C-30.51402344 65.5978125 -30.02804688 65.195625 -29.52734375 64.78125 C-27.16010949 62.02048575 -27.52499201 59.60023439 -27.64453125 56.09375 C-27.84105796 53.82970174 -27.84105796 53.82970174 -29.75 52 C-31.84247852 51.07000955 -33.74774338 50.40218868 -36 50 C-36.95785488 44.34482479 -37.18317826 38.85563379 -37.1875 33.125 C-37.19974609 32.27808594 -37.21199219 31.43117187 -37.22460938 30.55859375 C-37.23727479 25.04491431 -37.18022604 19.14855304 -35 14 C-31.625 12.125 -31.625 12.125 -28 11 C-24.48482702 9.0999065 -24.07668348 8.22621626 -22.75 4.3125 C-22.5025 3.219375 -22.255 2.12625 -22 1 C-14.65623924 0.42240084 -7.36901413 -0.14738028 0 0 Z " fill="#078993" transform="translate(264,163)"/>
<path d="M0 0 C1 2 1 2 0.50390625 4.00390625 C-18.06716246 54.4771428 -56.99269907 85.5486899 -103.16918945 110.18676758 C-116.96115298 117.59063854 -130.27356265 125.56827971 -142 136 C-142.92039062 136.78890625 -143.84078125 137.5778125 -144.7890625 138.390625 C-152.12929444 144.82091083 -158.32155663 151.87874971 -164.01171875 159.80078125 C-166 162 -166 162 -169.875 162.375 C-172.18709273 162.25331091 -174.34974196 161.93222408 -176.62548828 161.49121094 C-180.4963482 160.92774905 -184.28632452 160.8564353 -188.1875 160.8671875 C-188.96706055 160.86623077 -189.74662109 160.86527405 -190.54980469 160.86428833 C-192.19710369 160.86361018 -193.84440541 160.86543896 -195.49169922 160.86962891 C-197.96458241 160.87492416 -200.4372791 160.86970174 -202.91015625 160.86328125 C-215.40556403 160.85629637 -227.91153258 160.87899819 -240.125 163.8125 C-240.8792627 163.98555664 -241.63352539 164.15861328 -242.41064453 164.33691406 C-247.93595282 165.64321698 -253.2900917 167.29262655 -258.6171875 169.265625 C-261 170 -261 170 -265 170 C-265.27561768 169.47269287 -265.55123535 168.94538574 -265.83520508 168.40209961 C-275.09542051 150.81131725 -285.87381979 135.86597011 -299 121 C-300.35444094 119.45857429 -301.70865949 117.91695309 -303.0625 116.375 C-303.82240234 115.52035156 -303.82240234 115.52035156 -304.59765625 114.6484375 C-309 109.4735376 -309 109.4735376 -309 107 C-304.50933346 105.82914259 -300.6135338 105.33159042 -296 106 C-291.40329634 109.28076079 -288.29476397 113.46010735 -285 118 C-284.14865827 119.13037464 -283.29709823 120.2605849 -282.4453125 121.390625 C-279.87226962 124.86620142 -277.42507647 128.42016995 -275 132 C-274.5570459 132.65000977 -274.1140918 133.30001953 -273.65771484 133.96972656 C-272.30757817 135.9550796 -270.96419322 137.94475064 -269.625 139.9375 C-269.22015381 140.53989502 -268.81530762 141.14229004 -268.39819336 141.76293945 C-261 152.90416542 -261 152.90416542 -261 156 C-259.90042969 155.72285156 -258.80085938 155.44570313 -257.66796875 155.16015625 C-256.17458142 154.7938537 -254.68108586 154.42799222 -253.1875 154.0625 C-252.10952148 153.78889648 -252.10952148 153.78889648 -251.00976562 153.50976562 C-225.66005022 147.3677641 -196.51053448 149.46894825 -172 158 C-185.67241362 146.1904088 -208.80936146 145.7412105 -225.8125 145.6875 C-227.1236377 145.68186035 -228.43477539 145.6762207 -229.78564453 145.67041016 C-236.79969687 145.7227737 -243.44161115 146.18669648 -250.32299805 147.57348633 C-253.25308167 148.04032227 -256.03783119 148.06821767 -259 148 C-259.41342651 147.21689453 -259.41342651 147.21689453 -259.83520508 146.41796875 C-266.21170054 134.40896802 -272.97856155 122.98194678 -281 112 C-281.41024414 111.43812988 -281.82048828 110.87625977 -282.24316406 110.29736328 C-286.61999978 104.33654681 -291.13870623 98.49493514 -295.78515625 92.7421875 C-297 91 -297 91 -297 89 C-295.0625 88.5 -295.0625 88.5 -292 88 C-291.34515625 87.82726562 -290.6903125 87.65453125 -290.015625 87.4765625 C-287.25521581 87.03607167 -285.6639078 87.08520813 -283 88 C-278.99341788 91.874497 -276.05116143 96.36007538 -273 101 C-272.25878906 102.06992187 -271.51757812 103.13984375 -270.75390625 104.2421875 C-263.962005 114.33923855 -258.50738865 125.16513177 -253 136 C-252.07960937 135.9278125 -251.15921875 135.855625 -250.2109375 135.78125 C-219.13635383 133.50286912 -192.08260098 137.69623356 -167 157 C-165.15442224 152.2937767 -163.585067 147.60932292 -162.1875 142.75 C-158.77494086 131.61089187 -153.63981056 122.74080259 -146 114 C-145.25621094 113.08863281 -144.51242187 112.17726563 -143.74609375 111.23828125 C-127.53517487 92.23675035 -104.25779326 79.58602849 -82.77905273 67.43334961 C-60.12433379 54.60386324 -38.98916856 40.90554753 -20 23 C-18.824375 21.90558594 -18.824375 21.90558594 -17.625 20.7890625 C-11.01710948 14.44076768 -5.53608724 7.27452211 0 0 Z " fill="#038891" transform="translate(475,213)"/>
</svg>
